<?xml version="1.0" encoding="utf-8"?>
<!-- Generator: Adobe Illustrator 22.0.1, SVG Export Plug-In . SVG Version: 6.00 Build 0)  -->
<svg version="1.1" id="Layer_1" xmlns="http://www.w3.org/2000/svg" xmlns:xlink="http://www.w3.org/1999/xlink" x="0px" y="0px"
	 viewBox="0 0 512 435.1" style="enable-background:new 0 0 512 435.1;" xml:space="preserve">
<style type="text/css">
	.st0{fill:#005696;}
</style>
<g>
	<g>
		<path class="st0" d="M476,164.5h-75.3l103-103c5.3-5.3,8.2-12.3,8.2-19.8c0-7.5-2.9-14.5-8.2-19.8l-10.8-10.8
			c-10.9-10.9-28.6-10.9-39.5,0L300.3,164.5H32.9C14.7,164.5,0,179.2,0,197.3v204.4c0,18.1,14.7,32.9,32.9,32.9H476
			c18.1,0,32.9-14.7,32.9-32.9V197.3C508.9,179.2,494.2,164.5,476,164.5z M468,25.6c2.9-2.9,7.7-2.9,10.7,0l10.8,10.8
			c1.4,1.4,2.2,3.3,2.2,5.3c0,2-0.8,3.9-2.2,5.3l-26.1,26.1l-18.3-18.3l-3.1-3.1L468,25.6z M427.4,66.1l21.4,21.4L244.9,291.5
			l-32.1,10.7l10.7-32.1L427.4,66.1z M488.5,401.8c0,6.9-5.6,12.5-12.5,12.5H32.9c-6.9,0-12.5-5.6-12.5-12.5V197.3
			c0-6.9,5.6-12.5,12.5-12.5h247l-72.5,72.5c-1.1,1.1-2,2.5-2.5,4L187,315.1c-1.2,3.7-0.3,7.7,2.5,10.4c1.9,1.9,4.6,3,7.2,3
			c1.1,0,2.2-0.2,3.2-0.5l53.7-17.9c1.5-0.5,2.9-1.3,4-2.5l122.7-122.7H476c6.9,0,12.5,5.6,12.5,12.5L488.5,401.8L488.5,401.8z"/>
	</g>
</g>
<g>
	<g>
		<path class="st0" d="M451.1,331.2H445c-5.6,0-10.2,4.6-10.2,10.2s4.6,10.2,10.2,10.2h6.1c5.6,0,10.2-4.6,10.2-10.2
			S456.7,331.2,451.1,331.2z"/>
	</g>
</g>
<g>
	<g>
		<path class="st0" d="M404.5,331.2H172.4c-5.6,0-10.2,4.6-10.2,10.2s4.6,10.2,10.2,10.2h232.1c5.6,0,10.2-4.6,10.2-10.2
			S410.1,331.2,404.5,331.2z"/>
	</g>
</g>
<g>
	<g>
		<path class="st0" d="M451.1,272.4H299c-5.6,0-10.2,4.6-10.2,10.2s4.6,10.2,10.2,10.2h152c5.6,0,10.2-4.6,10.2-10.2
			S456.7,272.4,451.1,272.4z"/>
	</g>
</g>
<g>
	<g>
		<path class="st0" d="M107.6,239.3v-37.8c13,0.9,17.9,6.9,22.4,6.9c5.6,0,8.2-7.1,8.2-10.6c0-9.1-17.9-13-30.6-13.4v-5
			c0-2.2-2.8-4.3-5.6-4.3c-3.2,0-5.4,2-5.4,4.3v5.4c-17.7,1.9-35.4,11.2-35.4,34.6c0,23.8,18.6,30.6,35.4,36.5v43.8
			c-19-1.5-24-14.5-30.2-14.5c-4.7,0-8.6,6.1-8.6,10.6c0,9.1,15.6,21.6,38.7,22v5.8c0,2.2,2.2,4.3,5.4,4.3c2.8,0,5.6-2,5.6-4.3v-6.3
			c20.1-2.8,33.9-15.5,33.9-38.4C141.5,253.5,123.8,245.3,107.6,239.3z M97.7,235.8c-9.9-3.7-17.9-7.6-17.9-18.3
			c0-9.7,7.5-14.3,17.9-15.6C97.7,201.9,97.7,235.8,97.7,235.8z M106.5,299.3V260c9.1,3.9,16.4,9.1,16.4,20.9
			C122.9,291.5,116.5,297.4,106.5,299.3z"/>
	</g>
</g>
</svg>
