<?xml version="1.0" encoding="utf-8"?>
<!-- Generator: Adobe Illustrator 22.0.1, SVG Export Plug-In . SVG Version: 6.00 Build 0)  -->
<svg version="1.1" id="Layer_1" xmlns="http://www.w3.org/2000/svg" xmlns:xlink="http://www.w3.org/1999/xlink" x="0px" y="0px"
	 viewBox="0 0 469.3 469.3" style="enable-background:new 0 0 469.3 469.3;" xml:space="preserve">
<style type="text/css">
	.st0{fill:#005696;}
</style>
<g>
	<g>
		<g>
			<path class="st0" d="M462.4,342.9l-89.1-128.3c-3.3-4.8-7.6-8.6-12.3-12c4.7-3.4,9-7.2,12.3-12l89.1-128.3
				c4.5-6.5,6.9-14.1,6.9-21.9c0-22.3-19.7-40.5-43.8-40.5H43.8C19.7,0,0,18.2,0,40.5c0,7.8,2.4,15.4,6.9,21.9L96,190.7
				c3.3,4.8,7.6,8.6,12.3,12c-4.7,3.4-9,7.2-12.3,12L6.9,342.9C2.4,349.5,0,357,0,364.8c0,1.9,0.3,3.7,0.6,5.5c-0.3,1-0.6,1.9-0.6,3
				v53.3c0,23.5,19.1,42.7,42.7,42.7h384c23.5,0,42.7-19.1,42.7-42.7v-53.3c0-1.1-0.3-2-0.6-3c0.3-1.8,0.6-3.6,0.6-5.5
				C469.3,357,466.9,349.5,462.4,342.9z M24.5,50.2c-2.1-3-3.1-6.3-3.1-9.7c0-10.6,10.1-19.2,22.5-19.2h381.7
				c12.4,0,22.5,8.6,22.5,19.2c0,3.4-1.1,6.8-3.1,9.7l-89.1,128.3c-5.8,8.3-16.3,13.5-27.4,13.5H141c-11.1,0-21.6-5.2-27.4-13.5
				L24.5,50.2z M448,426.7c0,11.8-9.6,21.3-21.3,21.3h-384c-11.8,0-21.3-9.6-21.3-21.3v-27.3c6.6,3.7,14.2,5.9,22.5,5.9h381.7
				c8.3,0,15.9-2.2,22.5-5.9V426.7z M425.5,384H43.8c-12.4,0-22.5-8.6-22.5-19.2c0-3.4,1.1-6.8,3.1-9.7l89.1-128.3
				c5.8-8.3,16.3-13.5,27.4-13.5h187.4c11.1,0,21.6,5.2,27.4,13.5l89.1,128.3c2.1,3,3.1,6.3,3.1,9.7C448,375.4,437.9,384,425.5,384z
				"/>
			<path class="st0" d="M337.1,239.2c-2-2.8-5.2-4.5-8.7-4.5l-188.5-0.3h0c-3.5,0-6.8,1.7-8.8,4.6L56.8,345.9
				c-2.2,3.3-2.5,7.5-0.7,11c1.9,3.5,5.5,5.7,9.5,5.7h338c4,0,7.6-2.2,9.5-5.8c1.8-3.5,1.5-7.8-0.8-11.1L337.1,239.2z M86,341.3
				l59.4-85.6l177.4,0.3l60.2,85.3H86z"/>
			<circle class="st0" cx="352" cy="426.7" r="10.7"/>
			<circle class="st0" cx="394.7" cy="426.7" r="10.7"/>
		</g>
	</g>
</g>
</svg>
