<?xml version="1.0" encoding="utf-8"?>
<!-- Generator: Adobe Illustrator 22.0.1, SVG Export Plug-In . SVG Version: 6.00 Build 0)  -->
<svg version="1.1" id="Layer_1" xmlns="http://www.w3.org/2000/svg" xmlns:xlink="http://www.w3.org/1999/xlink" x="0px" y="0px"
	 viewBox="0 0 207 144" style="enable-background:new 0 0 207 144;" xml:space="preserve">
<style type="text/css">
	.Arched_x0020_Green{fill:url(#SVGID_1_);stroke:#FFFFFF;stroke-width:0.25;stroke-miterlimit:1;}
	.st0{fill:#FFFFFF;}
</style>
<linearGradient id="SVGID_1_" gradientUnits="userSpaceOnUse" x1="0" y1="792" x2="0.7071" y2="791.2929">
	<stop  offset="0" style="stop-color:#20AC4B"/>
	<stop  offset="0.9831" style="stop-color:#19361A"/>
</linearGradient>
<g>
	<path class="st0" d="M103.5,128.9c-26,0-52,0-77.9,0c-1.5,0-1.5,0-1.5-1.4c0-11.2,0-22.5,0-33.7c0-1.7,0-1.8,1.8-1.8
		c51.8,0,103.5,0,155.3,0c0.3,0,0.7,0,1,0c0.6,0,0.8,0.3,0.9,0.9c0,0.3,0,0.5,0,0.8c0,11.3,0,22.6,0,33.9c0,1.3,0,1.3-1.4,1.3
		C155.6,128.9,129.6,128.9,103.5,128.9z M75.2,116.1c-0.3-0.4-0.4-0.5-0.5-0.7c-0.8-2.3-1.6-4.5-2.4-6.8c-0.8-2.5-1.6-4.9-2.5-7.4
		c-0.1-0.2-0.6-0.4-0.9-0.4c-0.3,0-0.6,0.3-0.7,0.6c-0.6,1.7-1.2,3.4-1.8,5.1c-0.7,2.2-1.4,4.4-2.2,6.5c-0.3,1-0.7,1.9-1.2,3.1
		c-0.3-0.6-0.6-0.9-0.7-1.3c-0.5-1.8-1-3.5-1.6-5.3c-0.8-2.7-1.6-5.4-2.4-8c-0.1-0.3-0.5-0.6-0.8-0.7c-0.5-0.1-1,0-1.6,0
		c0.6,2.1,1.2,4,1.8,5.8c1.2,3.8,2.5,7.5,3.7,11.2c0.2,0.5,0.2,1,0.9,0.9c0.7,0,1.2-0.2,1.4-1c0.7-2.1,1.4-4.2,2.1-6.2
		c0.8-2.2,1.5-4.3,2.3-6.5c0.1-0.4,0.5-0.7,0.8-1.2c0.2,0.4,0.2,0.5,0.3,0.7c0.8,2.3,1.5,4.5,2.3,6.8c0.7,2.2,1.4,4.3,2,6.5
		c0.2,0.6,0.4,0.9,1,1c0.7,0,1-0.3,1.2-0.9c0.2-0.8,0.5-1.6,0.8-2.3c0.7-2.2,1.5-4.4,2.2-6.5c0.6-1.7,1.2-3.3,1.7-5
		c0.4-1,0.7-2.1,1-3.1c-1-0.2-1.7-0.2-1.8,1.1c0,0.6-0.3,1.2-0.5,1.8c-0.9,3.1-1.9,6.2-2.8,9.2C76,113.9,75.6,114.9,75.2,116.1z
		 M54.6,119.4c-1-0.7-1.9-1.4-2.8-2c-0.4-0.3-0.8-0.6-0.3-1.1c2.1-2.2,2.8-4.9,2.6-7.9c-0.2-2.7-1.2-4.9-3.5-6.4
		c-1.4-0.9-2.9-1.4-4.5-1.6c-3.3-0.5-6.3,0.2-8.7,2.5c-2.3,2.2-3.1,5-2.6,8.2c0.4,2.7,1.6,5,4.1,6.3c1.1,0.6,2.5,1.1,3.8,1.3
		c1.9,0.2,3.9,0.5,5.6-0.5c1.7-0.9,2.6,0,3.7,0.9c0.1,0.1,0.2,0.2,0.3,0.3C53.3,120.4,53.3,120.4,54.6,119.4z M164.5,109.8
		c1.1-0.5,2.1-0.8,3-1.3c3-1.6,3.3-5.6,0.6-7.2c-0.8-0.5-1.8-0.6-2.7-0.7c-1.9-0.1-3.9,0-5.9,0c-0.3,0-0.6,0-0.8,0.1
		c0,6,0,11.9,0,17.8c0.7,0,1.4,0,2.1,0c0-0.5,0-0.9,0-1.3c0-2.2,0-4.4,0-6.6c0-0.3,0.2-0.8,0.4-0.9c0.2-0.1,0.6,0.1,0.9,0.3
		c0.2,0.1,0.3,0.3,0.5,0.5c1.7,2.2,3.5,4.5,5.2,6.7c1,1.4,1.7,1.6,3.6,1.1C169.1,115.6,166.9,112.8,164.5,109.8z M107.4,118.9
		c0-6.3,0-12.2,0-18.2c-0.4,0-0.8,0-1.3,0.1c0,4.5,0,8.9,0,13.3c-0.1,0-0.2,0.1-0.3,0.1c-0.3-0.3-0.7-0.6-1-1
		c-0.8-0.9-1.6-1.7-2.4-2.6c-2.9-3.2-5.9-6.4-8.8-9.5c-0.3-0.3-0.7-0.3-1.2-0.6c0,6.2,0,12.1,0,18.1c0.4,0,0.8,0,1.2,0
		c0-1.7,0-3.2,0-4.8c0-1.6,0-3.2,0-4.8c0-1.5-0.1-3.1,0.2-4.6c0.5,0.3,0.9,0.7,1.2,1c3.8,4.3,7.6,8.5,11.4,12.8
		C106.5,118.5,106.9,118.6,107.4,118.9z M147.4,100.2c-0.1,0-0.3,0-0.4,0c-2.7,6.1-5.5,12.2-8.3,18.4c0.7,0,1.2,0,1.6,0
		c0.9-2.2,1.7-4.4,2.6-6.5c0.1-0.3,0.6-0.6,0.8-0.6c1.9-0.1,3.7-0.1,5.6,0c0.4,0,0.9,0.4,1.1,0.8c0.8,1.9,1.6,3.9,2.4,5.8
		c0.1,0.2,0.3,0.5,0.5,0.5c0.7,0.1,1.4,0,2.2,0C152.8,112.4,150.1,106.3,147.4,100.2z M112,115.6c-0.1,0.4-0.2,0.7-0.3,0.9
		c-0.4,1.2-0.4,1.3,0.8,1.8c0.9,0.3,1.8,0.7,2.7,0.7c1.7,0.1,3.4-0.1,4.7-1.3c1.3-1,1.9-2.3,2-4c0.1-1.6-0.2-3-1.6-3.9
		c-1.2-0.8-2.7-1.3-4-1.9c-1.3-0.6-2.5-1.4-2.8-3c-0.2-1.5,0.7-3,2-3.4c1.7-0.6,3.4-0.1,4.3,1.1c0.2,0.2,0.4,0.5,0.7,0.8
		c0.1-0.5,0.1-0.8,0.2-1.1c0.3-1,0.2-1.3-0.7-1.6c-2.1-0.7-4.1-0.6-6.1,0.4c-2.7,1.3-3.2,6.2-0.6,7.6c1.3,0.7,2.7,1.3,4,1.9
		c1.1,0.5,2.1,1.2,2.5,2.4c0.5,1.7-0.2,3.6-1.6,4.5c-1.5,1-3.4,0.9-4.9-0.3C113.1,116.6,112.6,116.1,112,115.6z M124,101.9
		c0.4,0,0.7,0,1,0c1.1-0.1,2.2-0.2,3.3-0.2c1.5,0,1.6,0.1,1.6,1.5c0,4.6,0,9.2,0,13.8c0,1.7,0,1.7,1.7,1.6c0.1,0,0.2-0.1,0.4-0.1
		c0-0.4,0-0.8,0-1.2c0-4.4,0-8.8,0-13.2c0-2.6,0.2-2.8,2.8-2.4c0.8,0.1,1.7,0.1,2.5,0.1c0-0.5,0-0.8,0-1.2c-4.4,0-8.8,0-13.3,0
		C124,101.1,124,101.5,124,101.9z M86.7,118.7c0-6,0-11.9,0-17.9c-0.7,0-1.4,0-2,0c0,6,0,11.9,0,17.9
		C85.4,118.7,86,118.7,86.7,118.7z"/>
	<path class="st0" d="M43.3,60.8c12.1,0,24.2,0,36.4,0c-0.2-0.4-0.3-0.6-0.5-1c15.9,0,31.7,0,47.7,0c-0.2,0.3-0.3,0.5-0.5,0.8
		c0.1,0.1,0.2,0.2,0.2,0.2c0.4,0,0.7,0,1.1,0c11.3,0,22.7,0,34,0c0.3,0,0.5,0,0.8,0c0.2,0,0.5,0.2,0.7,0.3c-0.1,0.2-0.2,0.5-0.3,0.7
		c-0.7,0.6-1.4,1.3-2.2,1.8c-0.6,0.3-1.3,0.5-2,0.5c-11.6,0-23.3,0-34.9,0c-11.8,0-23.7,0.1-35.5,0.1c-13.6,0-27.1-0.1-40.7-0.1
		c-0.7,0-1.5-0.3-2.1-0.7c-0.9-0.6-1.7-1.4-2.5-2.1C43.2,61.1,43.2,61,43.3,60.8z"/>
	<path class="st0" d="M58.7,74.5c0-1,0.8-0.9,1.4-0.9c7.1,0,14.2,0,21.4,0c0.6,0,1.2,0.2,1.6-0.7c0.1-0.2,0.8-0.2,1.2-0.3
		c8.8,0,17.6,0,26.3,0c3.7,0,7.4,0,11,0c0.6,0,1.2-0.1,1.5,0.7c0.1,0.2,0.8,0.3,1.2,0.3c7.4,0,14.8,0,22.2,0c0.6,0,1.3-0.2,1.3,1
		c10.9,0,21.7,0,32.5,0c0.1,0,0.1,0.1,0.2,0.3c-0.7,0.7-1.4,1.3-2.5,1.3c-8.2,0-16.4-0.1-24.7,0c-4.7,0-9.4,0.4-14.1,0.5
		c-4.7,0.1-9.5-0.4-14.1,0.1c-5.3,0.6-10.5,0.2-15.7,0.3c-5.3,0.1-10.5,0-15.8,0c-3.6,0-7.2,0.4-10.7-0.1
		c-6.7-0.8-13.5,0.2-20.2-0.5c-5.7-0.6-11.4-0.2-17.1-0.4c-5.7-0.2-11.4-0.1-17.1,0c-1.1,0-1.7-0.6-2.6-1.5c2.9-0.3,5.6-0.1,8.3-0.1
		c2.7,0,5.4,0,8.2,0c2.7,0,5.4,0,8.2,0C53.2,74.5,55.9,74.5,58.7,74.5z"/>
	<path class="st0" d="M172.8,80.9c-1,1.3-2,1.5-3.3,1.5c-8.2-0.1-16.4,0-24.7,0c-0.6,0-1.2-0.2-1.6,0.6c-0.1,0.2-0.7,0.2-1.1,0.2
		c-5,0-10.1-0.4-15,0.1c-5.1,0.5-10.2,0.2-15.3,0.3c-2,0.1-4-0.4-6-0.5c-1.9-0.1-3.9,0-5.8,0c-0.1,0-0.1,0-0.2,0
		c-2.6,0.2-5.1,0.4-7.7,0.5c-3.7,0.1-7.4,0.4-11-0.1c-5.9-0.7-11.7-0.2-17.6-0.4c-0.2,0-0.6,0-0.6-0.2c-0.3-1-1.1-0.7-1.8-0.7
		c-8.3,0-16.6,0-25,0c-1.1,0-1.7-0.6-2.6-1.5c0.7-0.1,1.1-0.2,1.6-0.2c8.8,0,17.6,0,26.4,0c0.7,0,1.4-0.3,2.1-0.5
		c0.4-0.1,0.8-0.2,1.3-0.2c4.7,0,9.5,0,14.2,0c0.6,0,1.1,0,1.6-0.6c0.2-0.3,1-0.4,1.5-0.4c8.6,0,17.2,0,25.7,0c5.2,0,10.3,0,15.5,0
		c0.7,0,1.4,0,1.8,0.7c0.2,0.2,0.7,0.3,1.1,0.3c4.9,0,9.9,0,14.8,0c0.5,0,1,0.3,1.5,0.5c0.4,0.1,0.9,0.2,1.3,0.2c9,0,18.1,0,27.1,0
		C171.7,80.7,172.2,80.8,172.8,80.9z"/>
	<path class="st0" d="M155.5,67.1c0,0.3,0,0.5,0,0.5c-1.3,1.1-2.3,2.8-4.3,2.8c-9,0-18.1-0.4-27.1,0.1c-12.8,0.7-25.6,0.1-38.4,0.4
		c-10.2-1-20.5-0.2-30.7-0.5c-0.6,0-1.3-0.4-1.8-0.8c-0.8-0.6-1.6-1.4-2.4-2.1c0.1-0.1,0.1-0.2,0.2-0.3c0.4,0,0.8-0.1,1.2-0.1
		c10.5,0,20.9,0,31.4,0c0.7,0,1.3,0,1.8-0.6c0.2-0.2,0.6-0.3,1-0.3c11.1,0,22.1,0,33.2,0c0.3,0,0.7,0,0.8,0.2c0.6,1,1.5,0.8,2.4,0.8
		c10.5,0,20.9,0,31.4,0C154.6,67.1,155,67.1,155.5,67.1z"/>
	<path class="st0" d="M142.6,47c-0.3,0.5-0.5,0.8-0.8,1.3c0.9,0,1.7,0.1,2.5,0c1.1-0.1,1.5,0.3,1.7,1.4c-0.4,0.1-0.7,0.2-1.1,0.2
		c-1.4,0-2.9,0-4.3,0c-0.8,0-1.3,0.2-1.9,0.7c-0.8,0.8-1.7,1-2.9,1c-21.9,0-43.9,0-65.8,0c-0.8,0-1.5-0.1-2.1-0.7
		c-0.8-0.8-1.8-1.1-3-1c-1.2,0.1-2.3,0-3.5,0c-0.4,0-1.1,0.2-1-0.6c0-0.6,0.4-1,1.1-1c0.9,0,1.7,0,2.7,0c-0.2-0.5-0.3-0.8-0.5-1.3
		C90,47,116.1,47,142.6,47z"/>
	<path class="st0" d="M164.8,87.3c-0.7,1-1.4,1.5-2.5,1.5c-5.1,0-10.2,0-15.3,0c-0.4,0-0.9,0.4-1.3,0.5c-0.4,0.1-0.7,0.3-1.1,0.3
		c-4.9,0-9.7,0-14.6,0c-0.5,0-1.1-0.1-1.4,0.6c-0.1,0.2-0.5,0.2-0.8,0.2c-2.5,0-5,0-7.6,0c-0.3,0-0.7,0-0.9-0.2
		c-1.1-0.8-2.3-0.6-3.5-0.6c-9.1,0-18.2,0-27.2,0c-0.6,0-1.1,0.3-1.7,0.4c-0.5,0.1-0.9,0.4-1.4,0.4c-2.4,0-4.8,0-7.2,0
		c-0.4,0-0.7-0.4-1.1-0.5c-0.3-0.1-0.7-0.3-1-0.3c-4.8,0-9.6,0-14.4,0c-0.6,0-1.2,0.1-1.5-0.6c-0.1-0.2-0.7-0.2-1-0.2
		c-5,0-10.1,0-15.1,0c-1.2,0-1.9-0.6-2.7-1.6c0.6,0,1-0.1,1.4-0.1c5.6,0,11.2,0.4,16.8-0.1c6-0.6,12-0.2,17.9-0.4
		c0.2,0,0.5,0,0.6-0.2c0.6-0.8,1.4-0.6,2.2-0.7c3.7,0,7.5,0,11.2,0c0.3,0,0.9-0.3,0.9,0.5c0,0.1,0.7,0.3,1,0.3c5.3,0,10.5,0,15.8,0
		c0.9,0,1.8,0,2.7,0c0.5,0,1.2,0.3,1.4-0.6c0-0.1,0.5-0.2,0.7-0.2c4.1,0,8.2,0,12.2,0c0.2,0,0.6,0,0.7,0.1c0.7,1,1.6,0.7,2.5,0.7
		c4.5,0,9.1-0.4,13.5,0.1c7,0.8,14,0.2,21,0.5C164.3,87.2,164.5,87.2,164.8,87.3z"/>
	<path class="st0" d="M134.5,53.3c0.5,1.1,0.8,2.1,1.2,3c0.2,0.6,0.2,1-0.6,1.1c-3.2,0.2-6.4,0.4-9.6,0.5c-15.8,0-31.7,0-47.5,0
		c-2.3,0-4.6-0.3-7-0.5c-0.6,0-0.8-0.4-0.6-0.9c0.2-0.6,0.4-1.2,0.7-1.9c0.1-0.4,0.3-0.8,0.5-1.4C92.5,53.3,113.5,53.3,134.5,53.3z"
		/>
	<path class="st0" d="M102.9,44.9c-3.4,0-6.8,0-10.2,0c-1.1,0-1.4-0.3-1-1.4c0.2-0.4,0.3-0.8,0.5-1.2c1.1-2.5,0.6-2.1,3.1-2.1
		c5.4,0,10.9,0,16.3,0c0.8,0,1.2,0.3,1.5,1c0.4,0.9,0.7,1.8,1.1,2.8c0.3,0.9-0.2,1-0.9,1C109.8,44.9,106.4,44.9,102.9,44.9z"/>
	<path class="st0" d="M102.9,38.3c-2.6,0-5.3,0-7.9,0c-1.1,0-1.2-0.2-0.7-1.2c0.4-0.9,0.7-1.8,1.1-2.6c0.2-0.3,0.6-0.7,0.9-0.7
		c4.4,0,8.8,0,13.2,0c0.6,0,0.9,0.2,1.1,0.8c0.3,0.8,0.7,1.7,1,2.5c0.5,1.2,0.5,1.2-0.9,1.2C108.1,38.3,105.5,38.3,102.9,38.3z"/>
	<path class="st0" d="M102.9,32c-1.7,0-3.4,0-5.2,0c-1.2,0-1.3-0.2-0.9-1.3c0.3-0.9,0.6-1.8,1.1-2.7c0.2-0.4,0.7-0.7,1.1-0.7
		c2.6-0.1,5.3-0.1,7.9,0c0.3,0,0.8,0.3,1,0.5c0.5,0.9,0.8,1.9,1.1,2.9c0.3,1,0.2,1.2-1,1.2C106.3,32,104.6,32,102.9,32z"/>
	<path class="st0" d="M81.4,44.4c-1.7,0-3.3,0-5,0c-1,0-1.1-0.3-0.8-1.2c0-0.1,0.1-0.3,0.1-0.4c0.6-1.7,0.6-1.7,2.4-1.7
		c2.4,0,4.9,0,7.3,0c0.9,0,2.3,2,1.9,2.8c-0.1,0.2-0.6,0.4-0.9,0.4C84.9,44.5,83.1,44.5,81.4,44.4z"/>
	<path class="st0" d="M124.6,44.4c-1.7,0-3.4,0-5.1,0c-1,0-1.1-0.2-0.7-1.1c0.1-0.2,0.1-0.3,0.1-0.5c0.5-1.5,0.7-1.7,2.2-1.7
		c2.5,0,5,0,7.4,0c0.9,0,2.4,2,2,2.8c-0.1,0.2-0.6,0.4-0.9,0.4C128.1,44.5,126.3,44.4,124.6,44.4z"/>
	<path class="st0" d="M99,25.3c0.5-1.4,0.9-2.6,1.4-3.8c0.1-0.3,0.6-0.5,0.9-0.5c1.1-0.1,2.1-0.1,3.2,0c0.3,0,0.7,0.2,0.9,0.5
		c0.5,1.2,1,2.4,1.5,3.8C104.2,25.3,101.7,25.3,99,25.3z"/>
	<path class="st0" d="M77.9,37.6c0.2-0.7,0.4-1.5,0.8-2.2c0.1-0.3,0.6-0.5,0.9-0.5c1.3-0.1,2.5-0.1,3.8,0c0.3,0,0.7,0.3,0.9,0.6
		c0.3,0.5,0.5,1.1,0.7,1.7c0,0.2-0.3,0.7-0.4,0.7c-2.1,0-4.2,0-6.3,0C78.2,37.8,78.1,37.7,77.9,37.6z"/>
	<path class="st0" d="M121,37.7c0.3-0.9,0.6-1.7,0.9-2.5c0.1-0.2,0.4-0.4,0.7-0.4c1.4,0,2.7,0,4.1,0c0.3,0,0.6,0.3,0.8,0.5
		c0.2,0.2,0.2,0.6,0.4,0.9c0.6,1.6,0.6,1.6-1.1,1.6c-1.5,0-3,0-4.5,0C121.9,37.9,121.6,37.8,121,37.7z"/>
	<path class="st0" d="M69.4,56.4c-0.4,0-0.8,0.1-1.1,0.1c-3.1,0-6.2,0-9.2,0c-0.4,0-1.1,0.2-1.1-0.6c0-0.7,0.4-1.1,1.1-1.1
		c3,0,6.1,0,9.1,0C69.2,54.8,69.2,55.5,69.4,56.4z"/>
	<path class="st0" d="M142.6,56.5c-1.6,0-3.2,0-4.8,0c-0.3,0-0.6-0.3-1-0.4c0.3-0.4,0.6-0.9,1-1.2c0.2-0.2,0.7,0,1.1,0
		c2.7,0,5.3,0,8,0c0.3,0,0.8,0,0.9,0.2c0.3,0.3,0.3,0.7,0.5,1.1c-0.3,0.1-0.6,0.4-0.9,0.4C145.8,56.5,144.2,56.5,142.6,56.5z"/>
	<path class="st0" d="M103.2,15.9c0.4,0.9,1,1.8,1,2.8c0,1.1-1.1,0.4-1.7,0.5c-0.4,0.1-1,0.1-0.8-0.6c0.3-0.9,0.7-1.8,1-2.7
		C102.9,15.9,103,15.9,103.2,15.9z"/>
	<path class="st0" d="M123.4,31.6c0.4-1,0.7-1.7,1-2.5c0.6,0.2,1.6,1.6,1.4,2.1c-0.1,0.1-0.3,0.3-0.4,0.3
		C124.8,31.6,124.2,31.6,123.4,31.6z"/>
	<path class="st0" d="M80.3,31.6c0.3-0.9,0.5-1.5,0.7-2.1c0.1-0.2,0.3-0.4,0.5-0.4c0.2,0,0.4,0.2,0.5,0.4c0.1,0.1,0.1,0.3,0.1,0.5
		c0.1,0.5,0.2,1,0.3,1.5C81.8,31.6,81.2,31.6,80.3,31.6z"/>
	<path class="st0" d="M141.8,43.4c0.3-0.5,0-1.4,1-1.2c0.3,0.1,0.4,0.8,0.6,1.2c-0.5,0.1-1,0.2-1.5,0.3
		C141.9,43.6,141.9,43.5,141.8,43.4z"/>
	<path class="st0" d="M63.5,44.1c-0.3-0.5-0.7-0.8-0.6-0.9c0.2-0.4,0.5-0.6,0.8-1c0.2,0.3,0.6,0.6,0.7,1
		C64.3,43.3,63.9,43.6,63.5,44.1z"/>
	<path class="st0" d="M45.5,113.9c1.2,0.9,2.3,1.8,3.5,2.6c-0.7,1.3-2,1.5-3.1,1.8c-3.2,0.8-6.9-1.3-8.1-4.3c-1.4-3.3-1-6.6,0.6-9.6
		c1.2-2.4,3.5-3.6,6.2-3.6c3,0,5.4,1.3,6.6,4.2c1,2.5,1.1,5.1,0.3,7.7c-0.3,0.9-0.7,1.8-1.1,2.6c-0.3,0.6-0.8,0.7-1.4,0.2
		c-0.5-0.5-1.1-0.9-1.5-1.4C46.9,113.4,46.3,113.3,45.5,113.9z"/>
	<path class="st0" d="M160.7,105.2c0-1,0-1.9,0-2.9c0-0.6,0.2-0.9,0.9-0.9c1,0,1.9,0,2.9,0c2.2,0,3.5,1.7,3.3,3.9
		c-0.2,2-1.8,3.3-3.4,3.6c-0.8,0.1-1.7,0.3-2.5,0.3c-0.8,0.1-1.2-0.3-1.1-1.1C160.7,107.1,160.7,106.1,160.7,105.2z"/>
	<path class="st0" d="M146.8,103.8c1,2.2,1.9,4.4,2.9,6.8c-0.5,0.1-0.8,0.2-1.1,0.2c-1.4,0-2.8,0-4.3,0c-1,0-1-0.2-0.7-1
		c0.7-1.7,1.4-3.3,2.1-5c0.1-0.3,0.4-0.6,0.6-1C146.6,103.7,146.7,103.8,146.8,103.8z"/>
</g>
</svg>
